<svg width="117" height="32" viewBox="0 0 117 32" fill="none" xmlns="http://www.w3.org/2000/svg">
<mask id="mask0" mask-type="alpha" maskUnits="userSpaceOnUse" x="0" y="0" width="33" height="32">
<path fill-rule="evenodd" clip-rule="evenodd" d="M0 15.913C0 24.7015 7.21724 31.8259 16.1203 31.8259V31.8259C25.0233 31.8259 32.2405 24.7015 32.2405 15.913V15.913C32.2405 7.12446 25.0233 0 16.1203 0V0C7.21724 0 0 7.12446 0 15.913V15.913Z" transform="translate(0.0483398 0.0975952)" fill="white"/>
</mask>
<g mask="url(#mask0)">
<path fill-rule="evenodd" clip-rule="evenodd" d="M0 15.913C0 24.7015 7.21724 31.8259 16.1203 31.8259V31.8259C25.0233 31.8259 32.2405 24.7015 32.2405 15.913V15.913C32.2405 7.12446 25.0233 0 16.1203 0V0C7.21724 0 0 7.12446 0 15.913V15.913Z" transform="translate(0.0483398 0.0975952)" fill="#BDBDBD"/>
<path fill-rule="evenodd" clip-rule="evenodd" d="M29.6613 0H5.80328V6.36521H29.6613V0ZM5.80328 34.3722H29.6613V28.007H5.80328V34.3722ZM0 21.3235H35.787V13.0488H0V21.3235Z" transform="translate(-1.71277 -1.17548)" fill="#131313"/>
</g>
<path fill-rule="evenodd" clip-rule="evenodd" d="M0 18V0.9375H5.65057C6.53694 0.9375 7.32832 1.02539 8.02476 1.20117C8.72119 1.37695 9.31275 1.65039 9.79946 2.02148C10.2862 2.39258 10.6581 2.86328 10.9153 3.43359C11.1725 4.00391 11.3011 4.6875 11.3011 5.48438C11.3011 6.28125 11.0716 6.98633 10.6126 7.59961C10.1536 8.21289 9.52841 8.6875 8.73701 9.02344C9.21977 9.15625 9.6491 9.35156 10.025 9.60938C10.4009 9.86719 10.7175 10.1719 10.9747 10.5234C11.2319 10.875 11.4278 11.2695 11.5623 11.707C11.6968 12.1445 11.7641 12.6016 11.7641 13.0781C11.7641 13.875 11.6276 14.5801 11.3546 15.1934C11.0815 15.8066 10.6957 16.3223 10.1971 16.7402C9.69856 17.1582 9.0971 17.4727 8.39276 17.6836C7.68841 17.8945 6.90494 18 6.04231 18H0ZM2.27924 10.0195V16.1602H6.04233C6.58839 16.1602 7.07312 16.0879 7.49652 15.9434C7.91992 15.7988 8.27802 15.5957 8.57084 15.334C8.86366 15.0723 9.08722 14.752 9.24155 14.373C9.39587 13.9941 9.47303 13.5703 9.47303 13.1016C9.47303 12.6328 9.40972 12.207 9.28309 11.8242C9.15647 11.4414 8.95664 11.1172 8.68361 10.8516C8.41058 10.5859 8.06435 10.3809 7.6449 10.2363C7.22546 10.0918 6.72689 10.0195 6.14916 10.0195H2.27924ZM2.27924 8.21484H5.72181C6.21248 8.21484 6.65961 8.15234 7.06323 8.02734C7.46684 7.90234 7.81307 7.72266 8.10194 7.48828C8.3908 7.25391 8.61436 6.9668 8.77264 6.62695C8.93092 6.28711 9.01006 5.90235 9.01006 5.47266C9.01006 4.53515 8.73308 3.85352 8.1791 3.42773C7.62512 3.00195 6.78229 2.78906 5.65058 2.78906H2.27924V8.21484ZM20.1213 18.2344C19.227 18.2344 18.4178 18.082 17.6937 17.7773C16.9695 17.4727 16.3503 17.0488 15.8359 16.5059C15.3214 15.9629 14.9257 15.3164 14.6488 14.5664C14.3718 13.8164 14.2333 12.9961 14.2333 12.1055V11.6133C14.2333 10.582 14.3896 9.66016 14.7022 8.84766C15.0148 8.03515 15.4322 7.35157 15.9546 6.79688C16.4769 6.24218 17.0744 5.81836 17.7471 5.52539C18.4198 5.23242 19.1201 5.08594 19.8482 5.08594C20.7663 5.08594 21.5576 5.24414 22.2224 5.56055C22.8872 5.87695 23.4352 6.3125 23.8665 6.86719C24.2979 7.42188 24.6164 8.07812 24.8222 8.83594C25.0279 9.59375 25.1308 10.418 25.1308 11.3086V12.2812H16.4294C16.4452 12.8672 16.5422 13.4141 16.7202 13.9219C16.8983 14.4297 17.1515 14.8711 17.48 15.2461C17.8084 15.6211 18.2041 15.918 18.6671 16.1367C19.13 16.3555 19.6543 16.4648 20.24 16.4648C21.0155 16.4648 21.6724 16.3086 22.2105 15.9961C22.7487 15.6836 23.2196 15.2695 23.6232 14.7539L24.9646 15.7852C24.7588 16.0977 24.5096 16.4004 24.2167 16.6934C23.9239 16.9863 23.5816 17.248 23.1899 17.4785C22.7982 17.709 22.349 17.8926 21.8425 18.0293C21.3361 18.166 20.7623 18.2344 20.1213 18.2344ZM19.8482 6.86719C19.405 6.86719 18.9975 6.94726 18.6255 7.10742C18.2536 7.26758 17.9212 7.5 17.6284 7.80469C17.3355 8.10938 17.0922 8.48828 16.8983 8.94141C16.7044 9.39453 16.5718 9.91406 16.5006 10.5H22.9347V10.3359C22.9109 9.91406 22.8417 9.4961 22.7269 9.08203C22.6122 8.66797 22.4341 8.29688 22.1927 7.96875C21.9514 7.64062 21.6407 7.375 21.2609 7.17188C20.881 6.96875 20.4101 6.86719 19.8482 6.86719ZM33.0012 18.2344C32.1069 18.2344 31.2977 18.082 30.5736 17.7773C29.8495 17.4727 29.2302 17.0488 28.7158 16.5059C28.2014 15.9629 27.8057 15.3164 27.5287 14.5664C27.2517 13.8164 27.1132 12.9961 27.1132 12.1055V11.6133C27.1132 10.582 27.2695 9.66016 27.5821 8.84766C27.8947 8.03515 28.3122 7.35157 28.8345 6.79688C29.3568 6.24218 29.9543 5.81836 30.627 5.52539C31.2997 5.23242 32.0001 5.08594 32.7282 5.08594C33.6462 5.08594 34.4376 5.24414 35.1024 5.56055C35.7671 5.87695 36.3152 6.3125 36.7465 6.86719C37.1778 7.42188 37.4963 8.07812 37.7021 8.83594C37.9079 9.59375 38.0107 10.418 38.0107 11.3086V12.2812H29.3093C29.3252 12.8672 29.4221 13.4141 29.6002 13.9219C29.7782 14.4297 30.0315 14.8711 30.3599 15.2461C30.6884 15.6211 31.084 15.918 31.547 16.1367C32.01 16.3555 32.5343 16.4648 33.1199 16.4648C33.8955 16.4648 34.5523 16.3086 35.0905 15.9961C35.6286 15.6836 36.0995 15.2695 36.5031 14.7539L37.8445 15.7852C37.6388 16.0977 37.3895 16.4004 37.0967 16.6934C36.8039 16.9863 36.4616 17.248 36.0698 17.4785C35.6781 17.709 35.229 17.8926 34.7225 18.0293C34.216 18.166 33.6422 18.2344 33.0012 18.2344ZM32.7282 6.86719C32.285 6.86719 31.8774 6.94726 31.5055 7.10742C31.1335 7.26758 30.8011 7.5 30.5083 7.80469C30.2155 8.10938 29.9721 8.48828 29.7782 8.94141C29.5843 9.39453 29.4518 9.91406 29.3806 10.5H35.8146V10.3359C35.7909 9.91406 35.7216 9.4961 35.6069 9.08203C35.4921 8.66797 35.314 8.29688 35.0727 7.96875C34.8313 7.64062 34.5207 7.375 34.1408 7.17188C33.7609 6.96875 33.2901 6.86719 32.7282 6.86719ZM42.9372 18H40.7411V0H42.9372V18ZM48.8371 18H46.6409V5.32031H48.8371V18ZM46.4629 1.95703C46.4629 1.60547 46.5717 1.30859 46.7893 1.06641C47.007 0.824218 47.3295 0.703125 47.7568 0.703125C48.1842 0.703125 48.5086 0.824218 48.7302 1.06641C48.9518 1.30859 49.0626 1.60547 49.0626 1.95703C49.0626 2.3086 48.9518 2.60156 48.7302 2.83594C48.5086 3.07031 48.1842 3.1875 47.7568 3.1875C47.3295 3.1875 47.007 3.07031 46.7893 2.83594C46.5717 2.60156 46.4629 2.3086 46.4629 1.95703ZM54.4282 5.32031L54.4995 6.91406C54.9585 6.34375 55.5125 5.89649 56.1614 5.57227C56.8104 5.24805 57.5384 5.08594 58.3457 5.08594C58.9709 5.08594 59.5367 5.16992 60.0432 5.33789C60.5497 5.50586 60.981 5.77539 61.3371 6.14648C61.6933 6.51758 61.9683 6.99414 62.1622 7.57617C62.3561 8.15821 62.453 8.86328 62.453 9.69141V18H60.2569V9.66797C60.2569 9.17578 60.2015 8.75586 60.0907 8.4082C59.9799 8.06055 59.8157 7.77734 59.598 7.55859C59.3804 7.33984 59.1113 7.17969 58.7908 7.07812C58.4703 6.97656 58.1003 6.92578 57.6809 6.92578C56.9686 6.92578 56.3434 7.11328 55.8053 7.48828C55.2671 7.86328 54.8477 8.35547 54.547 8.96484V18H52.3508V5.32031H54.4282ZM71.0951 18.2344C70.2008 18.2344 69.3916 18.082 68.6675 17.7773C67.9433 17.4727 67.3241 17.0488 66.8097 16.5059C66.2953 15.9629 65.8996 15.3164 65.6226 14.5664C65.3456 13.8164 65.2071 12.9961 65.2071 12.1055V11.6133C65.2071 10.582 65.3634 9.66016 65.676 8.84766C65.9886 8.03515 66.4061 7.35157 66.9284 6.79688C67.4507 6.24218 68.0482 5.81836 68.7209 5.52539C69.3936 5.23242 70.094 5.08594 70.822 5.08594C71.7401 5.08594 72.5315 5.24414 73.1962 5.56055C73.861 5.87695 74.409 6.3125 74.8404 6.86719C75.2717 7.42188 75.5902 8.07812 75.796 8.83594C76.0017 9.59375 76.1046 10.418 76.1046 11.3086V12.2812H67.4032C67.419 12.8672 67.516 13.4141 67.6941 13.9219C67.8721 14.4297 68.1254 14.8711 68.4538 15.2461C68.7822 15.6211 69.1779 15.918 69.6409 16.1367C70.1039 16.3555 70.6282 16.4648 71.2138 16.4648C71.9894 16.4648 72.6462 16.3086 73.1844 15.9961C73.7225 15.6836 74.1934 15.2695 74.597 14.7539L75.9384 15.7852C75.7327 16.0977 75.4834 16.4004 75.1906 16.6934C74.8977 16.9863 74.5555 17.248 74.1637 17.4785C73.772 17.709 73.3229 17.8926 72.8164 18.0293C72.3099 18.166 71.7361 18.2344 71.0951 18.2344ZM70.822 6.86719C70.3788 6.86719 69.9713 6.94726 69.5993 7.10742C69.2274 7.26758 68.895 7.5 68.6022 7.80469C68.3093 8.10938 68.066 8.48828 67.8721 8.94141C67.6782 9.39453 67.5457 9.91406 67.4744 10.5H73.9085V10.3359C73.8847 9.91406 73.8155 9.4961 73.7007 9.08203C73.586 8.66797 73.4079 8.29688 73.1665 7.96875C72.9252 7.64062 72.6145 7.375 72.2347 7.17188C71.8548 6.96875 71.3839 6.86719 70.822 6.86719Z" transform="translate(40.5195 7)" fill="black"/>
</svg>
